<?xml version="1.0" standalone="no"?>
<!DOCTYPE svg PUBLIC "-//W3C//DTD SVG 20010904//EN"
 "http://www.w3.org/TR/2001/REC-SVG-20010904/DTD/svg10.dtd">
<svg version="1.0" xmlns="http://www.w3.org/2000/svg"
 width="512.000000pt" height="512.000000pt" viewBox="0 0 512.000000 512.000000"
 preserveAspectRatio="xMidYMid meet">

<g transform="translate(0.000000,512.000000) scale(0.100000,-0.100000)"
fill="#000000" stroke="none">
<path d="M4265 5105 c-208 -77 -223 -368 -24 -471 l29 -15 0 -134 0 -135 85 0
85 0 0 139 c0 133 1 140 21 146 32 10 98 74 119 115 62 122 10 279 -114 342
-52 27 -148 33 -201 13z m141 -179 c58 -49 20 -146 -57 -146 -41 0 -79 39 -79
83 0 75 80 112 136 63z"/>
<path d="M0 4525 l0 -428 75 6 c41 3 79 8 85 12 7 4 10 143 10 410 l0 403 -22
5 c-13 3 -51 9 -85 13 l-63 7 0 -428z"/>
<path d="M3160 4945 c-8 -2 -32 -6 -52 -10 l-38 -6 0 -404 c0 -233 4 -406 9
-409 5 -4 43 -9 85 -13 l76 -6 0 427 0 426 -32 -1 c-18 -1 -40 -3 -48 -4z"/>
<path d="M1428 4923 l-58 -15 0 -384 0 -383 53 -15 c28 -8 66 -16 82 -18 l30
-3 3 418 2 417 -27 -1 c-16 -1 -54 -8 -85 -16z"/>
<path d="M1710 4522 l0 -419 46 8 c25 5 64 14 85 19 l39 11 -2 381 -3 381 -37
13 c-20 7 -58 16 -83 19 l-45 7 0 -420z"/>
<path d="M340 4526 c0 -185 3 -336 8 -336 12 0 82 49 140 99 29 24 89 87 134
138 l80 93 -51 64 c-66 83 -216 225 -269 254 l-42 23 0 -335z"/>
<path d="M2843 4825 c-71 -47 -167 -138 -241 -228 l-61 -74 36 -44 c105 -127
302 -304 319 -286 2 2 3 153 2 336 l-3 331 -52 -35z"/>
<path d="M1085 4705 c-55 -55 -115 -119 -133 -142 l-33 -42 80 -93 c79 -91
178 -185 187 -176 2 3 3 128 2 279 l-3 274 -100 -100z"/>
<path d="M2050 4519 l0 -281 48 41 c27 22 80 75 117 118 38 43 78 88 88 100
20 22 20 22 -8 60 -37 49 -205 222 -227 234 -17 9 -18 -7 -18 -272z"/>
<path d="M4178 4148 l-168 -101 0 -207 0 -207 171 -102 c93 -57 176 -100 182
-98 7 3 82 48 167 99 l155 94 0 214 0 214 -163 98 c-90 54 -166 98 -170 98 -4
-1 -82 -46 -174 -102z"/>
<path d="M1348 3443 c-186 -188 -265 -281 -334 -395 l-37 -60 237 -237 236
-236 0 323 0 322 85 0 85 0 0 -320 c0 -176 3 -320 8 -320 12 0 462 454 462
466 0 18 -110 181 -169 252 -60 72 -370 392 -380 392 -3 0 -90 -84 -193 -187z"/>
<path d="M3747 3378 l-167 -101 2 -206 3 -206 171 -103 171 -103 171 103 172
103 0 207 0 207 -168 101 c-92 55 -172 100 -177 100 -6 -1 -85 -46 -178 -102z"/>
<path d="M4605 3381 l-160 -97 -3 -211 -2 -210 170 -102 170 -102 170 102 170
102 -2 210 -3 210 -163 99 c-90 54 -169 98 -175 97 -7 0 -84 -44 -172 -98z"/>
<path d="M3168 3315 c-420 -66 -752 -385 -844 -811 -21 -101 -22 -303 0 -399
36 -165 95 -294 193 -422 327 -431 935 -529 1385 -225 367 247 532 710 406
1137 -11 39 -22 72 -24 74 -2 2 -35 -15 -75 -39 -65 -38 -71 -44 -65 -69 3
-14 12 -57 20 -96 41 -188 3 -413 -100 -589 -58 -99 -176 -223 -273 -287 -301
-198 -698 -179 -991 46 -147 113 -261 295 -305 486 -21 94 -22 271 -1 360 91
394 423 668 813 673 l103 1 0 81 c0 65 -3 83 -16 88 -25 10 -132 5 -226 -9z"/>
<path d="M170 2765 c0 -124 5 -269 11 -323 13 -121 50 -281 92 -392 l32 -85
150 -3 150 -2 0 235 -1 236 -119 119 -120 120 60 60 59 60 83 -82 c45 -45 84
-80 86 -77 2 2 14 39 26 83 12 43 40 119 61 169 22 50 37 93 34 96 -3 4 -140
7 -305 9 l-299 4 0 -227z"/>
<path d="M3229 2979 c-270 -39 -494 -244 -564 -514 -19 -75 -19 -240 0 -322
106 -450 634 -662 1028 -414 181 115 300 315 314 531 5 76 -11 230 -23 230 -3
0 -17 -6 -32 -14 -26 -14 -35 -9 -285 141 l-257 154 0 103 0 104 -31 6 c-38 7
-76 6 -150 -5z m521 -504 l0 -85 -425 0 -425 0 0 85 0 85 425 0 425 0 0 -85z
m0 -340 l0 -85 -425 0 -425 0 0 85 0 85 425 0 425 0 0 -85z"/>
<path d="M856 2709 c-40 -118 -76 -285 -76 -347 0 -35 15 -52 335 -372 l335
-335 0 305 0 305 -278 278 -279 279 -37 -113z"/>
<path d="M1898 2543 l-278 -278 0 -305 0 -305 261 260 260 260 -6 75 c-8 97 9
240 42 360 30 107 31 131 12 178 l-14 32 -277 -277z"/>
<path d="M775 2030 c19 -182 78 -394 155 -555 56 -116 117 -211 298 -460 223
-305 222 -304 222 -722 l0 -293 85 0 85 0 0 283 c0 419 5 432 244 761 188 258
216 303 277 430 45 96 109 272 109 301 0 7 -13 46 -29 87 -15 40 -31 82 -35
92 -6 17 -52 -25 -286 -259 l-280 -280 0 -197 0 -198 -85 0 -85 0 0 198 0 197
-341 340 -340 340 6 -65z"/>
<path d="M415 1763 c44 -69 113 -162 158 -213 51 -57 207 -200 219 -200 3 0
-14 45 -38 100 -34 78 -114 313 -114 336 0 2 -55 4 -121 4 l-121 0 17 -27z"/>
<path d="M4031 1339 c-29 -21 -91 -60 -137 -85 l-85 -46 37 -67 c20 -36 38
-68 40 -70 5 -5 284 162 284 171 0 9 -71 127 -80 133 -4 2 -30 -14 -59 -36z"/>
<path d="M2098 1078 l-87 -123 72 -35 c77 -37 157 -110 371 -340 l106 -114 66
65 65 65 -195 188 c-205 197 -249 253 -283 359 -10 31 -20 57 -23 57 -3 0 -44
-55 -92 -122z"/>
<path d="M4115 1005 c-77 -47 -140 -87 -140 -89 0 -3 108 -197 240 -432 264
-470 266 -472 365 -482 124 -12 230 116 191 230 -12 35 -502 858 -511 858 -3
-1 -68 -39 -145 -85z"/>
</g>
</svg>
