<?xml version="1.0" standalone="no"?>
<!DOCTYPE svg PUBLIC "-//W3C//DTD SVG 20010904//EN"
 "http://www.w3.org/TR/2001/REC-SVG-20010904/DTD/svg10.dtd">
<svg version="1.0" xmlns="http://www.w3.org/2000/svg"
 width="512.000000pt" height="512.000000pt" viewBox="0 0 512.000000 512.000000"
 preserveAspectRatio="xMidYMid meet">

<g transform="translate(0.000000,512.000000) scale(0.100000,-0.100000)"
fill="#000000" stroke="none">
<path d="M0 4295 l0 -825 80 0 c44 0 80 -4 80 -8 0 -5 -11 -41 -25 -81 -215
-634 -170 -1335 125 -1936 137 -280 272 -468 494 -691 218 -217 408 -355 677
-488 240 -119 496 -200 774 -242 148 -22 531 -26 670 -6 769 110 1402 506
1826 1142 390 586 515 1331 339 2030 -59 235 -182 525 -306 720 -196 308 -470
589 -769 788 -133 89 -391 218 -540 271 -401 142 -796 182 -1227 125 -40 -6
-48 -4 -48 10 0 15 -88 16 -1075 16 l-1075 0 0 -825z m1980 -5 l0 -660 -905 0
-905 0 0 660 0 660 905 0 905 0 0 -660z m848 649 c111 -12 292 -48 399 -80
l73 -22 0 -336 0 -336 -93 93 -93 92 -57 -58 -57 -57 193 -193 192 -192 195
195 195 195 -58 57 -57 58 -95 -95 -95 -95 0 303 0 303 23 -7 c12 -3 79 -35
149 -71 647 -327 1119 -944 1263 -1652 9 -46 13 -87 8 -91 -4 -4 -235 -60
-513 -124 -278 -64 -513 -119 -522 -122 -13 -4 -9 10 17 62 44 88 65 181 65
291 -1 306 -200 561 -500 639 -85 22 -234 22 -320 -1 -257 -67 -450 -284 -490
-550 -34 -226 69 -476 252 -610 45 -34 54 -45 41 -49 -53 -15 -1316 -306
-1319 -304 -1 2 15 39 37 83 21 44 46 107 54 140 19 76 19 234 0 310 -47 184
-183 355 -347 434 -194 94 -396 94 -583 2 -169 -84 -284 -217 -342 -396 -32
-101 -36 -254 -10 -355 40 -150 154 -312 273 -387 24 -15 44 -30 44 -33 0 -3
-107 -31 -237 -61 -180 -42 -240 -52 -245 -43 -11 16 -54 198 -74 309 -22 123
-30 480 -14 627 21 202 65 390 132 571 l32 87 903 0 903 0 0 725 c0 399 3 725
8 726 4 0 50 6 102 13 117 17 437 20 568 5z m597 -1404 c243 -64 405 -307 367
-552 -38 -239 -251 -424 -490 -423 -63 0 -162 25 -220 54 -300 153 -365 551
-130 788 123 124 308 176 473 133z m-2204 -506 c77 -22 173 -83 225 -142 90
-103 138 -269 116 -399 -15 -86 -65 -196 -116 -255 -88 -101 -230 -164 -372
-164 -141 -1 -250 45 -349 145 -98 99 -145 212 -145 346 0 135 47 247 147 348
131 133 305 176 494 121z m3727 -349 l2 -95 -1068 -249 -1068 -249 -79 28
c-66 23 -97 28 -175 28 -151 0 -267 -50 -382 -165 l-53 -53 -859 -200 c-822
-191 -859 -198 -872 -181 -17 24 -69 155 -63 160 13 13 2945 689 3004 693 82
5 164 25 232 54 50 22 1336 329 1363 326 12 -2 16 -22 18 -97z m-8 -372 c-77
-670 -408 -1254 -942 -1662 l-38 -28 -82 84 c-92 94 -175 154 -282 204 -78 36
-212 74 -260 74 -17 0 -36 4 -43 8 -6 4 -61 183 -123 397 -123 433 -129 450
-172 518 -17 26 -29 49 -27 51 7 5 1974 462 1978 460 2 -2 -2 -49 -9 -106z
m-2238 -356 c58 -26 131 -92 164 -147 17 -30 244 -784 244 -812 0 -2 -248 -3
-551 -3 -519 0 -550 1 -545 18 3 9 51 177 106 372 56 195 110 374 120 396 35
80 118 154 211 188 61 22 188 16 251 -12z m-656 -229 c-3 -10 -51 -178 -106
-373 -56 -195 -107 -358 -113 -362 -7 -4 -26 -8 -43 -8 -48 0 -182 -38 -260
-74 -107 -50 -190 -110 -282 -204 l-82 -84 -57 43 c-147 114 -281 244 -404
396 -71 86 -209 290 -209 307 0 8 78 30 202 59 331 76 877 204 1118 261 268
64 243 60 236 39z m1364 -922 c143 -43 292 -137 372 -235 l32 -39 -22 -18
c-36 -29 -248 -133 -362 -179 -128 -51 -314 -103 -475 -133 -165 -30 -602 -32
-765 -4 -187 33 -364 83 -525 147 -94 37 -305 143 -337 169 l-22 18 32 39
c106 129 301 233 477 255 33 4 389 6 790 5 727 -2 730 -2 805 -25z"/>
<path d="M601 4419 l-74 -370 -69 68 -68 68 -57 -58 -58 -57 175 -175 c96 -96
176 -173 177 -171 2 2 42 194 88 427 47 233 87 434 90 447 l5 22 420 0 420 0
0 85 0 85 -488 0 -487 0 -74 -371z"/>
<path d="M902 4458 l-52 -53 137 -137 138 -138 -138 -138 -137 -137 57 -58 58
-57 137 137 138 138 138 -138 137 -137 53 53 c28 29 52 57 52 62 0 5 -60 69
-132 142 l-133 133 135 135 135 135 -58 57 -57 58 -135 -135 -135 -135 -133
133 c-73 72 -137 132 -142 132 -6 0 -34 -24 -63 -52z"/>
<path d="M2560 4268 l0 -353 -95 95 -95 95 -57 -58 -58 -57 195 -195 195 -195
192 192 193 193 -60 60 -60 60 -90 -90 -90 -90 0 348 0 347 -85 0 -85 0 0
-352z"/>
<path d="M2505 1811 c-113 -29 -188 -125 -189 -241 -1 -54 4 -74 28 -118 48
-86 152 -141 244 -128 134 18 236 148 217 275 -17 116 -108 203 -221 215 -27
3 -62 1 -79 -3z m110 -186 c31 -30 32 -73 4 -109 -45 -57 -139 -19 -139 56 0
39 40 78 80 78 19 0 40 -9 55 -25z"/>
<path d="M1820 580 l0 -80 740 0 740 0 0 80 0 80 -740 0 -740 0 0 -80z"/>
</g>
</svg>
