<?xml version="1.0" standalone="no"?>
<!DOCTYPE svg PUBLIC "-//W3C//DTD SVG 20010904//EN"
 "http://www.w3.org/TR/2001/REC-SVG-20010904/DTD/svg10.dtd">
<svg version="1.0" xmlns="http://www.w3.org/2000/svg"
 width="512.000000pt" height="512.000000pt" viewBox="0 0 512.000000 512.000000"
 preserveAspectRatio="xMidYMid meet">

<g transform="translate(0.000000,512.000000) scale(0.100000,-0.100000)"
fill="#000000" stroke="none">
<path d="M2520 5107 c-47 -15 -103 -74 -118 -123 -22 -75 -20 -79 64 -108 41
-15 80 -29 87 -32 9 -3 11 8 9 39 -5 62 13 74 84 59 183 -38 548 -284 892
-599 l94 -86 -114 -116 c-62 -64 -135 -139 -162 -168 l-49 -51 7 -55 c7 -54 8
-55 51 -72 l44 -16 63 68 c34 37 112 119 173 181 l110 114 113 -117 c136 -140
322 -347 322 -357 0 -10 -264 -300 -359 -393 -81 -79 -81 -80 -81 -132 0 -29
-5 -76 -11 -105 l-12 -53 64 -59 c393 -363 787 -634 1005 -690 263 -68 385 94
288 384 -29 87 -95 230 -148 319 l-36 62 22 42 c35 65 32 166 -6 235 -50 89
-123 131 -231 132 l-61 0 -102 130 -103 129 100 125 c274 343 483 684 563 917
26 76 32 110 32 180 1 78 -2 90 -29 134 -36 57 -86 87 -160 93 -76 6 -165 -20
-311 -93 l-130 -65 -59 32 c-81 44 -191 51 -279 18 -73 -28 -148 -95 -184
-165 -31 -60 -42 -189 -22 -250 l13 -38 -74 -69 c-41 -37 -86 -77 -101 -88
l-27 -20 -117 106 c-434 392 -837 637 -1039 633 -22 -1 -56 -6 -75 -12z m2420
-172 c27 -33 -14 -182 -92 -340 -91 -182 -260 -437 -444 -672 l-96 -123 -47
53 c-71 80 -294 317 -340 362 l-41 39 33 34 c17 19 57 56 88 82 l55 49 64 -32
c56 -28 74 -32 145 -32 65 1 91 5 136 27 79 36 133 89 171 166 29 59 33 74 31
142 -2 41 -4 88 -5 104 -3 27 3 33 70 69 84 45 195 86 233 87 15 0 32 -7 39
-15z m-550 -1502 c99 -127 95 -117 71 -173 -54 -125 -8 -260 110 -325 44 -24
67 -30 123 -31 l70 -1 58 -109 c91 -171 141 -327 123 -384 -7 -21 -12 -22 -60
-17 -174 18 -552 269 -940 625 l-68 62 129 133 c71 72 167 174 213 225 46 50
87 92 90 92 3 -1 40 -44 81 -97z"/>
<path d="M1430 4773 c-256 -27 -493 -143 -681 -332 -195 -196 -287 -395 -324
-702 l-6 -45 -79 -33 c-175 -71 -285 -194 -325 -363 -52 -222 54 -457 253
-562 l69 -36 6 -89 c7 -116 30 -207 79 -311 75 -163 214 -308 367 -384 l66
-33 242 33 c134 17 249 34 258 38 30 11 13 26 -56 46 -244 73 -456 267 -553
505 -13 33 -27 77 -31 97 -8 40 -2 38 -114 53 -99 13 -217 95 -280 193 -72
115 -82 281 -22 405 75 156 228 247 417 247 l73 0 11 58 c6 31 15 76 19 100 8
41 8 43 -26 59 -53 25 -123 102 -154 168 -44 95 -44 94 35 121 39 13 75 24 81
24 7 0 17 -18 24 -40 35 -117 169 -180 276 -131 56 26 83 59 112 138 33 91 65
130 130 160 66 30 137 29 200 -4 l41 -22 43 22 c34 17 62 22 119 22 97 0 162
-34 226 -116 122 -159 247 -219 454 -219 178 0 277 38 389 148 35 34 67 61 71
60 18 -8 130 -84 130 -89 0 -3 -25 -33 -55 -67 -45 -50 -83 -82 -164 -138 -1
-2 7 -59 20 -128 l22 -126 69 0 c242 0 418 -138 459 -361 23 -126 -27 -277
-121 -369 -60 -58 -156 -108 -225 -116 -94 -10 -90 -6 -119 -98 -84 -258 -298
-469 -559 -551 -102 -32 -100 -50 5 -64 417 -57 427 -58 466 -41 65 29 150 89
217 151 155 145 255 371 255 576 l0 68 56 29 c121 63 214 166 256 284 26 70
35 207 18 285 -16 81 -64 169 -128 238 -44 48 -76 70 -156 110 -55 27 -106 49
-112 49 -7 0 -14 30 -19 78 -17 184 -104 408 -216 557 -185 246 -462 407 -764
444 -82 10 -660 13 -745 4z"/>
<path d="M1358 3998 c-8 -7 -23 -35 -32 -62 -45 -139 -160 -242 -292 -262
l-41 -6 -17 -101 c-10 -56 -20 -112 -23 -123 -4 -20 -2 -20 54 8 167 82 364
48 490 -85 l51 -54 23 19 c122 97 305 103 420 15 l43 -32 55 56 c131 130 325
163 485 83 27 -14 51 -23 53 -21 2 3 -6 62 -18 131 -19 106 -25 126 -38 120
-9 -4 -79 -9 -156 -11 -171 -6 -251 9 -374 68 -75 37 -100 56 -198 155 -119
121 -135 129 -191 100 -15 -8 -47 -35 -71 -60 l-45 -46 -62 60 c-63 60 -87 70
-116 48z"/>
<path d="M625 3321 c-69 -17 -140 -72 -172 -134 -9 -18 -18 -61 -21 -97 -3
-53 0 -76 18 -118 36 -84 129 -152 207 -152 18 0 22 9 28 68 6 59 56 358 70
420 5 21 2 22 -47 21 -29 -1 -66 -4 -83 -8z"/>
<path d="M1112 3311 c-108 -37 -179 -144 -170 -256 8 -98 58 -172 143 -211
180 -84 382 57 362 252 -10 102 -82 190 -178 218 -67 20 -91 20 -157 -3z"/>
<path d="M2317 3316 c-64 -18 -116 -61 -152 -127 -69 -128 -14 -289 120 -350
50 -23 152 -25 203 -4 49 21 110 80 133 130 23 50 25 151 4 202 -50 120 -183
184 -308 149z"/>
<path d="M2830 3313 c0 -10 14 -90 30 -178 17 -88 33 -195 37 -237 l6 -78 31
0 c70 1 156 63 198 144 30 58 30 155 -1 219 -44 90 -141 147 -253 147 -39 0
-48 -3 -48 -17z"/>
<path d="M1705 3216 c-55 -33 -76 -75 -86 -165 -18 -186 -118 -318 -287 -381
-47 -18 -74 -21 -152 -18 -82 3 -104 7 -162 35 -37 17 -90 52 -117 78 l-49 45
5 -47 c24 -239 174 -455 389 -559 39 -19 120 -47 180 -62 l109 -29 3 -148 c1
-82 -1 -152 -5 -156 -5 -4 -78 -17 -163 -29 -85 -12 -157 -23 -159 -26 -3 -2
11 -20 30 -40 54 -56 123 -84 230 -94 125 -12 216 -45 287 -105 l30 -25 58 40
c77 54 150 79 259 90 112 10 178 36 234 94 l43 43 -79 11 c-43 7 -117 17 -165
23 l-88 12 0 156 0 156 108 27 c165 42 260 94 363 197 71 71 94 102 133 181
30 61 52 123 61 173 24 125 22 127 -32 73 -27 -26 -77 -61 -113 -79 -61 -30
-70 -32 -180 -32 -99 0 -122 3 -165 23 -157 72 -240 193 -263 380 -8 63 -16
90 -35 116 -52 68 -149 86 -222 42z"/>
<path d="M3670 1965 l0 -85 640 0 640 0 0 85 0 85 -640 0 -640 0 0 -85z"/>
<path d="M935 1723 c-130 -17 -208 -38 -295 -80 -80 -39 -108 -59 -180 -132
-98 -98 -149 -185 -180 -307 -17 -66 -20 -111 -20 -319 l0 -242 53 18 c28 10
67 18 85 19 l32 0 0 255 0 255 468 2 467 3 3 88 3 87 147 0 c146 1 147 1 124
20 -36 30 -128 60 -185 60 -157 0 -322 94 -402 229 -32 54 -36 55 -120 44z"/>
<path d="M2530 1679 c-84 -137 -246 -229 -404 -229 -57 0 -134 -24 -175 -54
l-34 -25 149 -3 149 -3 3 -87 3 -88 469 0 470 0 0 -255 0 -255 30 0 c16 0 53
-9 82 -20 29 -11 54 -20 56 -20 9 0 -1 448 -12 510 -44 244 -214 446 -443 525
-61 22 -240 55 -292 55 -12 0 -31 -18 -51 -51z"/>
<path d="M3670 1625 l0 -85 85 0 85 0 0 85 0 85 -85 0 -85 0 0 -85z"/>
<path d="M4010 1625 l0 -85 470 0 470 0 0 85 0 85 -470 0 -470 0 0 -85z"/>
<path d="M3670 1280 l0 -90 638 2 637 3 0 85 0 85 -637 3 -638 2 0 -90z"/>
<path d="M1540 1105 l0 -85 253 2 252 3 3 83 3 82 -256 0 -255 0 0 -85z"/>
<path d="M600 842 l0 -177 28 -13 c39 -17 89 -68 115 -116 20 -38 22 -58 25
-253 2 -120 -1 -227 -6 -247 l-10 -36 1036 0 1037 0 -3 237 c-3 203 -1 244 14
281 21 56 66 108 116 133 l38 19 0 175 0 175 -385 0 -385 0 0 -85 0 -85 -425
0 -425 0 0 85 0 85 -385 0 -385 0 0 -178z"/>
<path d="M355 494 c-85 -44 -97 -76 -93 -250 3 -128 5 -142 27 -173 34 -48 91
-71 178 -71 62 0 76 3 100 24 l28 24 3 200 3 199 -26 32 c-26 30 -29 31 -108
31 -55 0 -92 -5 -112 -16z"/>
<path d="M3015 485 c-25 -24 -25 -25 -25 -230 0 -205 0 -206 25 -230 21 -22
33 -25 99 -25 82 0 119 10 155 43 46 42 61 93 61 207 0 127 -10 166 -52 207
-44 43 -76 53 -164 53 -66 0 -78 -3 -99 -25z"/>
</g>
</svg>
